# xmcd
#
# Track frame offsets:
#	150
#	18182
#	35570
#	54067
#	71337
#	89502
#	107612
#	125467
#	142710
#	163232
#
# Disc length: 2409 seconds
#
# Revision: 3
# Processed by: cddbd v1.5.2PL0 Copyright (c) Steve Scherf et al.
# Submitted via: EasyCDDAExtractor 15.3.0.1
#
DISCID=7709670a
DTITLE=Jessica Cristina - Pasional
DYEAR=2000
DGENRE=Latin
TTITLE0=Besos
TTITLE1=Chico Malo
TTITLE2=Es Tanto Amor
TTITLE3=Un Traidor Como Tu
TTITLE4=No Llorare
TTITLE5=Pasional
TTITLE6=El Jardin Prometido
TTITLE7=Nunca Supe Mas De Ti
TTITLE8=De Regreso
TTITLE9=Besos (Version Tropical Pop)
EXTD=\nYEAR: 2001  ID3G:  17
EXTT0=
EXTT1=
EXTT2=
EXTT3=
EXTT4=
EXTT5=
EXTT6=
EXTT7=
EXTT8=
EXTT9=
PLAYORDER=
